<?xml version="1.0" encoding="UTF-8"?>
<svg id="Layer_1" data-name="Layer 1" xmlns="http://www.w3.org/2000/svg" viewBox="0 0 1300 900">
  <defs>
    <style>
      .cls-1 {
        fill: #65cbc9;
      }

      .cls-2 {
        fill: #edba40;
      }

      .cls-3 {
        fill: #fff;
      }

      .cls-4 {
        fill: #38434c;
      }
    </style>
  </defs>
  <rect class="cls-4" x="-34.9" y="-30.44" width="1369.8" height="960.87"/>
  <g>
    <g>
      <polygon class="cls-3" points="500.71 475.49 522 424.51 533.92 424.51 555.66 475.49 543.21 475.49 527.99 437.18 513.08 475.49 500.71 475.49"/>
      <path class="cls-3" d="M598.73,424.51h11.47v32.54c0,12.82-11.47,19.19-24.89,19.19s-24.96-6.3-24.96-19.19v-32.54h11.32v31.26c0,7.65,6.37,11.17,13.49,11.17s13.57-3.67,13.57-11.17v-31.26Z"/>
      <path class="cls-3" d="M656.98,454.2l12.97,21.29h-12.44l-11.25-18.82h-12.97v18.82h-11.39v-50.98h26.99c11.7,0,19.42,4.8,19.42,14.77v1.72c0,7.05-4.57,11.4-11.32,13.19M633.29,447.98h14.99c4.35-.08,8.55-1.95,8.55-6.07v-1.87c0-3.97-3.52-6.15-8.7-6.15h-14.84v14.09Z"/>
      <path class="cls-3" d="M690.78,466.2v-32.31h28.33v-9.37h-39.73v50.97h41.3v-9.29h-29.91ZM696.74,454.12h17.81v-9.07h-17.81v9.07Z"/>
      <polygon class="cls-3" points="741.53 424.51 741.53 466.19 772.12 466.19 772.12 475.49 730.14 475.49 730.14 424.51 741.53 424.51"/>
      <path class="cls-3" d="M829.66,441.9v15.59c0,12.37-10.2,18.74-24.44,18.74h-1.12c-14.54,0-24.44-6.22-24.44-18.74v-15.59c0-11.4,10.27-18.14,24.36-18.14h1.2c13.65,0,24.44,6.9,24.44,18.14M818.19,443.25c0-6.67-5.55-10.12-12.97-10.12h-1.2c-7.57,0-12.89,3.75-12.89,10.05v13.04c0,7.35,5.02,10.72,12.97,10.72h1.12c7.95,0,12.97-3.37,12.97-10.72v-12.97Z"/>
      <polygon class="cls-3" points="878.79 424.51 889.36 424.51 889.36 475.49 878.56 475.49 850.15 439.43 850.15 475.49 839.58 475.49 839.58 424.51 850.37 424.51 878.79 460.34 878.79 424.51"/>
    </g>
    <g>
      <path class="cls-1" d="M481.43,427.67v27.53c0,.53-.43.96-.96.96h-10.35c-.53,0-.96-.43-.96-.96v-27.34c0-.53-.43-.96-.96-.96h-27.35c-.53,0-.96-.43-.96-.96v-10.36c0-.53.43-.96.96-.96h27.52c.51,0,1,.2,1.36.56l11.14,11.14c.36.36.56.85.56,1.36"/>
      <path class="cls-2" d="M410.64,444.95v10.1c0,.6.48,1.08,1.08,1.08h18.43c.6,0,1.08-.49,1.08-1.08v-10.1c0-.6-.49-1.08-1.08-1.08h-18.43c-.6,0-1.08.48-1.08,1.08"/>
      <path class="cls-2" d="M424.58,421.4l-7.15,7.15c-.42.42-.42,1.11,0,1.53l13.04,13.03c.42.42,1.11.42,1.53,0l7.14-7.15c.42-.42.42-1.11,0-1.53l-13.03-13.03c-.42-.42-1.11-.42-1.53,0"/>
      <path class="cls-2" d="M439.14,465.58l-13.03,13.03c-.42.42-1.11.42-1.53,0l-7.15-7.15c-.42-.42-.42-1.11,0-1.53l13.04-13.03c.42-.42,1.11-.42,1.53,0l7.14,7.15c.42.42.42,1.11,0,1.53"/>
      <path class="cls-2" d="M452.17,465.89v18.41c0,.6-.48,1.08-1.08,1.08h-10.11c-.6,0-1.08-.48-1.08-1.08v-18.41c0-.6.48-1.08,1.08-1.08h10.11c.6,0,1.08.48,1.08,1.08"/>
      <path class="cls-2" d="M474.64,471.45l-7.15,7.15c-.42.42-1.11.42-1.53,0l-13.03-13.03c-.42-.42-.42-1.11,0-1.53l7.14-7.15c.42-.42,1.11-.42,1.53,0l13.04,13.03c.42.42.42,1.11,0,1.53"/>
    </g>
  </g>
</svg>