<?xml version="1.0" encoding="UTF-8"?>
<svg id="Layer_2" data-name="Layer 2" xmlns="http://www.w3.org/2000/svg" viewBox="0 0 1039.67 153.72">
  <defs>
    <style>
      .cls-1 {
        fill: #fff;
      }
    </style>
  </defs>
  <g id="Layer_1-2" data-name="Layer 1">
    <g>
      <g>
        <polygon class="cls-1" points="195.6 132.21 241.84 21.5 267.73 21.5 314.95 132.21 287.92 132.21 254.87 49.02 222.47 132.21 195.6 132.21"/>
        <path class="cls-1" d="M408.49,21.5h24.91v70.66c0,27.84-24.91,41.68-54.06,41.68s-54.22-13.68-54.22-41.68V21.5h24.58v67.89c0,16.61,13.84,24.26,29.31,24.26s29.47-7.98,29.47-24.26V21.5Z"/>
        <path class="cls-1" d="M534.99,85.97l28.17,46.24h-27.03l-24.42-40.87h-28.17v40.87h-24.75V21.5h58.61c25.4,0,42.17,10.42,42.17,32.07v3.75c0,15.3-9.93,24.75-24.58,28.66M483.54,72.46h32.56c9.44-.16,18.56-4.23,18.56-13.19v-4.07c0-8.63-7.65-13.35-18.89-13.35h-32.24v30.61Z"/>
        <path class="cls-1" d="M608.41,112.03V41.85h61.53v-20.35h-86.29v110.7h89.71v-20.17h-64.95ZM621.35,85.81h38.68v-19.7h-38.68v19.7Z"/>
        <polygon class="cls-1" points="718.62 21.5 718.62 112.03 785.05 112.03 785.05 132.21 693.87 132.21 693.87 21.5 718.62 21.5"/>
        <path class="cls-1" d="M910.02,59.27v33.87c0,26.87-22.14,40.7-53.08,40.7h-2.44c-31.59,0-53.08-13.51-53.08-40.7v-33.87c0-24.75,22.3-39.4,52.91-39.4h2.6c29.64,0,53.08,14.98,53.08,39.4M885.11,62.2c0-14.49-12.05-21.98-28.17-21.98h-2.6c-16.44,0-28,8.14-28,21.82v28.33c0,15.96,10.91,23.28,28.17,23.28h2.44c17.26,0,28.17-7.33,28.17-23.28v-28.17Z"/>
        <polygon class="cls-1" points="1016.71 21.5 1039.67 21.5 1039.67 132.21 1016.22 132.21 954.52 53.9 954.52 132.21 931.56 132.21 931.56 21.5 955.01 21.5 1016.71 99.32 1016.71 21.5"/>
      </g>
      <g>
        <path class="cls-1" d="M153.74,28.36v59.78c0,1.15-.93,2.08-2.08,2.08h-22.47c-1.15,0-2.08-.93-2.08-2.08V28.75c0-1.15-.93-2.08-2.08-2.08h-59.4c-1.15,0-2.08-.93-2.08-2.08V2.08c0-1.15.93-2.08,2.08-2.08h59.76c1.1,0,2.16.44,2.94,1.22l24.19,24.19c.78.78,1.22,1.84,1.22,2.94"/>
        <path class="cls-1" d="M0,65.89v21.93c0,1.3,1.05,2.35,2.35,2.35h40.02c1.3,0,2.35-1.05,2.35-2.35v-21.93c0-1.3-1.05-2.35-2.35-2.35H2.35c-1.3,0-2.35,1.05-2.35,2.35"/>
        <path class="cls-1" d="M30.27,14.74l-15.53,15.53c-.92.92-.92,2.41,0,3.32l28.31,28.29c.92.92,2.41.92,3.32,0l15.51-15.53c.92-.92.91-2.41,0-3.32l-28.29-28.29c-.92-.92-2.41-.92-3.32,0"/>
        <path class="cls-1" d="M61.89,110.69l-28.29,28.29c-.92.92-2.41.92-3.32,0l-15.53-15.53c-.92-.92-.92-2.41,0-3.32l28.31-28.29c.92-.92,2.41-.92,3.32,0l15.51,15.53c.92.92.92,2.41,0,3.32"/>
        <path class="cls-1" d="M90.19,111.37v39.99c0,1.3-1.05,2.35-2.35,2.35h-21.95c-1.3,0-2.35-1.05-2.35-2.35v-39.99c0-1.3,1.05-2.35,2.35-2.35h21.95c1.3,0,2.35,1.05,2.35,2.35"/>
        <path class="cls-1" d="M139,123.45l-15.53,15.53c-.92.92-2.41.92-3.32,0l-28.29-28.29c-.92-.92-.92-2.41,0-3.32l15.51-15.53c.92-.92,2.41-.92,3.32,0l28.31,28.29c.92.92.92,2.41,0,3.32"/>
      </g>
    </g>
  </g>
</svg>