<?xml version="1.0" encoding="UTF-8"?>
<svg id="Layer_2" data-name="Layer 2" xmlns="http://www.w3.org/2000/svg" viewBox="0 0 397.09 397.04">
  <defs>
    <style>
      .cls-1 {
        fill: #65cbc9;
      }

      .cls-2 {
        fill: #edba40;
      }
    </style>
  </defs>
  <g id="Layer_1-2" data-name="Layer 1">
    <g>
      <path class="cls-1" d="M397.09,73.24v154.4c0,2.97-2.4,5.37-5.38,5.37h-58.03c-2.97,0-5.38-2.4-5.38-5.37V74.27c0-2.97-2.4-5.38-5.37-5.38h-153.43c-2.97,0-5.37-2.4-5.37-5.38V5.38c0-2.97,2.4-5.38,5.37-5.38h154.35c2.85,0,5.59,1.13,7.6,3.15l62.49,62.49c2.02,2.02,3.15,4.75,3.15,7.6"/>
      <path class="cls-2" d="M0,170.2v56.63c0,3.35,2.72,6.07,6.07,6.07h103.36c3.35,0,6.07-2.72,6.07-6.07v-56.63c0-3.35-2.72-6.07-6.07-6.07H6.07c-3.35,0-6.07,2.72-6.07,6.07"/>
      <path class="cls-2" d="M78.19,38.06l-40.12,40.12c-2.37,2.37-2.37,6.21,0,8.58l73.13,73.08c2.37,2.37,6.21,2.37,8.58,0l40.07-40.11c2.37-2.37,2.36-6.21,0-8.58L86.77,38.06c-2.37-2.37-6.21-2.37-8.58,0"/>
      <path class="cls-2" d="M159.85,285.89l-73.08,73.08c-2.37,2.37-6.21,2.37-8.58,0l-40.12-40.12c-2.37-2.37-2.37-6.21,0-8.58l73.13-73.08c2.38-2.37,6.22-2.37,8.59,0l40.07,40.11c2.37,2.37,2.37,6.21,0,8.58"/>
      <path class="cls-2" d="M232.96,287.67v103.3c0,3.35-2.72,6.07-6.07,6.07h-56.69c-3.35,0-6.07-2.72-6.07-6.07v-103.3c0-3.35,2.72-6.07,6.07-6.07h56.69c3.35,0,6.07,2.72,6.07,6.07"/>
      <path class="cls-2" d="M359.03,318.85l-40.12,40.12c-2.37,2.37-6.21,2.37-8.58,0l-73.08-73.08c-2.37-2.37-2.37-6.21,0-8.58l40.07-40.12c2.37-2.37,6.21-2.37,8.59,0l73.13,73.07c2.37,2.38,2.37,6.22,0,8.59"/>
    </g>
  </g>
</svg>